<?xml version="1.0" standalone="no"?>
<!DOCTYPE svg PUBLIC "-//W3C//DTD SVG 20010904//EN"
 "http://www.w3.org/TR/2001/REC-SVG-20010904/DTD/svg10.dtd">
<svg version="1.0" xmlns="http://www.w3.org/2000/svg"
 width="512.000000pt" height="512.000000pt" viewBox="0 0 512.000000 512.000000"
 preserveAspectRatio="xMidYMid meet">

<g transform="translate(0.000000,512.000000) scale(0.100000,-0.100000)"
fill="currentColor" stroke="none">
<path d="M510 4465 c-60 -19 -124 -75 -158 -139 l-27 -51 0 -1715 0 -1715 27
-51 c15 -29 46 -68 70 -88 83 -71 -74 -66 2158 -64 l2015 3 45 23 c61 32 97
67 128 127 l27 50 0 1715 0 1715 -27 51 c-35 66 -98 120 -162 139 -73 22
-4026 21 -4096 0z m3893 -319 c18 -7 42 -26 52 -42 20 -28 20 -58 23 -1349 2
-1295 2 -1319 -17 -1300 -10 11 -231 250 -490 530 -259 281 -490 525 -512 543
-34 26 -49 32 -90 32 -65 0 -88 -13 -212 -117 -146 -122 -170 -137 -226 -137
-29 0 -61 8 -82 20 -19 11 -171 168 -339 349 -327 353 -341 364 -435 365 -69
0 -121 -27 -180 -92 -28 -30 -320 -381 -650 -780 l-600 -724 -3 1305 c-2 1226
-1 1306 15 1339 10 20 34 44 53 54 33 17 110 18 1848 18 1508 0 1818 -2 1845
-14z"/>
<path d="M3561 3824 c-253 -68 -410 -331 -346 -579 67 -256 329 -415 580 -350
256 67 415 329 350 578 -67 259 -333 419 -584 351z"/>
</g>
</svg>
