<?xml version="1.0" encoding="utf-8"?>
<!DOCTYPE svg PUBLIC "-//W3C//DTD SVG 1.1//EN" "http://www.w3.org/Graphics/SVG/1.1/DTD/svg11.dtd">
<svg version="1.1" xmlns="http://www.w3.org/2000/svg" xmlns:xlink="http://www.w3.org/1999/xlink" x="0px" y="0px" viewBox="0 0 1000 1000" enable-background="new 0 0 1000 1000" xml:space="preserve">
<g><g><path d="M874.1,401.3l-661-376.2c-70.1-40-141.6,3.7-141.6,82.5v785.3c0,66.7,43.4,97.1,83.8,97.1c19,0,38.4-6,57.6-17.7l664-406.4c33.4-20.5,52.1-50.9,51.5-83.3C927.9,450.1,908.1,420.5,874.1,401.3z M832.4,493.3L168.5,899.6c-4.5,2.7-8,4.1-10.4,4.8c-0.7-2.4-1.3-6.1-1.3-11.5V107.6c0-8.1,1.5-12.2,1.5-13.2c2.6,0.2,7.2,1.5,12.9,4.8L832,475.4c8.1,4.7,10.6,8.7,11.3,7.8C843,484.3,840.2,488.4,832.4,493.3z"/></g><g></g><g></g><g></g><g></g><g></g><g></g><g></g><g></g><g></g><g></g><g></g><g></g><g></g><g></g><g></g></g>
</svg>