<?xml version="1.0" standalone="no"?>
<!DOCTYPE svg PUBLIC "-//W3C//DTD SVG 20010904//EN"
 "http://www.w3.org/TR/2001/REC-SVG-20010904/DTD/svg10.dtd">
<svg version="1.0" xmlns="http://www.w3.org/2000/svg"
 width="120.000000pt" height="119.000000pt" viewBox="0 0 120.000000 119.000000"
 preserveAspectRatio="xMidYMid meet">

<g transform="translate(0.000000,119.000000) scale(0.100000,-0.100000)"
fill="currentColor" stroke="none">
<path d="M455 1050 l-49 -50 -103 0 -103 0 0 -50 0 -50 400 0 400 0 0 50 0 50
-103 0 -103 0 -49 50 -49 50 -96 0 -96 0 -49 -50z"/>
<path d="M255 743 c6 -61 45 -605 45 -629 0 -12 49 -14 300 -14 251 0 300 2
300 14 0 24 39 568 45 629 l6 57 -351 0 -351 0 6 -57z m295 -293 l0 -250 -25
0 -25 0 0 250 0 250 25 0 25 0 0 -250z m150 0 l0 -250 -25 0 -25 0 0 250 0
250 25 0 25 0 0 -250z"/>
</g>
</svg>
